<?xml version="1.0" encoding="UTF-8"?>
<svg width="752pt" height="752pt" version="1.1" viewBox="0 0 752 752" xmlns="http://www.w3.org/2000/svg">
 <g fill-rule="evenodd">
  <path d="m593.54 264.61-17.586 39.289c-4.7812 9.1289-13.23 14.324-25.336 15.594h-6.6055c-8.0898-0.49609-16.895-0.66406-26.41-0.49609-11.504 1.8711-21.738 4.3203-30.703 7.3438-7.1562 2.3672-14.336 2.7266-21.547 1.0742-2.9141-0.82422-7.043-2.4258-12.379-4.7891-1.9805-0.98828-7.043-4.4102-15.188-10.238-8.4727-6.1094-16.504-11.031-24.102-14.77-6.6523-3.6367-19.422-9.6914-38.297-18.16-10.785-5.2266-17.773-9.9297-20.961-14.109-3.1406-4.2383-3.5508-9.3594-1.2422-15.352 1.2656-3.4102 3.8281-5.9453 7.6758-7.5977 5.3906-2.75 11.828-2.5352 19.316 0.66406 9.0156 4.0742 15.27 6.8828 18.734 8.4219 6.1094 2.75 15.707 6.2734 28.805 10.562 4.4609 1.3789 8.918 2.3164 13.371 2.8086h5.6953l-5.1133-2.3125c-30.102-13.809-49.883-22.727-59.344-26.742-9.2461-3.8516-17.254-4.457-24.02-1.8086-6.5508 2.75-11.059 6.7109-13.535 11.883-1.3203 2.918-2.2305 6.8516-2.7227 11.801-3.5234-0.21875-10.703-0.52734-21.543-0.91016-22.727 10.953-35.051 16.785-36.977 17.5-4.457 1.4883-9.0273 2.3125-13.699 2.4766-5.1211-0.11328-8.8828-1.0234-11.309-2.7266-2.8594-1.207-4.8984-4.2383-6.1094-9.0781-0.82812-4.957 3.4922-10.32 12.957-16.098l50.18-32.52c24.156-2.8555 47.738-6.7383 70.738-11.637 5.0586-1.1562 9.9609-0.6875 14.691 1.4023 14.754 7.5977 31.535 15.297 50.352 23.109 9.3633 3.8516 18.406 7.457 27.156 10.816 15.52 5.0039 28.527 7.8945 39.043 8.668h0.085937c11.551 0.10938 36.863-4.457 75.934-13.707 12.648-2.7969 12.648 7.082-0.007813 29.637z"/>
  <path d="m261.06 289.96c16.125 23.77 29.824 47.789 41.105 72.055 17.824 38.684 26 71.258 24.512 97.727-0.27344 1.4297-0.98828 2.8594-2.1445 4.2891-1.6484 1.8203-2.8594 2.8906-3.6328 3.2188-20.25 6.4922-40.305 8.1992-60.172 5.1211-29.879-5.3945-55.602-21.875-77.172-49.438 3.9062-35.879 11.113-63.863 21.625-83.945l14.027-19.477c12.664-13.812 26.613-23.66 41.852-29.551z"/>
  <path d="m513.39 368.37c-3.3594-4.3438-7.5156-6.9883-12.465-7.918-45.332 1.1133-71-5.2148-77.008-18.984-11.395-27.457-30.297-44.984-56.707-52.578-26.41-7.5391-55.164-4.4062-86.254 9.4062 13.699 21.848 25.039 43.246 34.004 64.219 16.617 37.309 24.02 69.223 22.203 95.75 0 4.8398-1.8438 9.4336-5.5273 13.781-3.25 4.4062-7.1562 7.3203-11.723 8.7578-14.254 4.7812-33.762 6.1602-58.52 4.125-24.816-2.0938-51.641-15-80.477-38.715-6.5586 32.344-13.254 53.379-20.098 63.102 67.75 39.262 133.63 60.461 197.64 63.598 9.9023-34.832 15.078-52.742 15.52-53.734 2.4766-6.4414 3.9648-10.102 4.457-10.977 1.1562-1.9219 2.5859-3.7109 4.2891-5.3672 3.7383-3.6836 8.0039-5.8867 12.797-6.6055 28.219-3.8516 52.543-12.598 72.961-26.246 30.871-20.465 47.344-49.824 49.438-88.07 0.45312-4.8477-1.0664-9.3594-4.5312-13.543zm-122.32 9.7422c-3.25 3.1914-7.1523 4.7812-11.723 4.7812-4.6797 0-8.6094-1.5898-11.805-4.7812-3.2422-3.1914-4.8672-7.1289-4.8672-11.801 0-4.625 1.625-8.5352 4.8672-11.723 3.1914-3.1914 7.1211-4.793 11.805-4.793 4.5703 0 8.4727 1.5977 11.723 4.793 3.1953 3.1875 4.793 7.0938 4.793 11.723-0.003906 4.668-1.6016 8.6094-4.793 11.801z"/>
 </g>
</svg>
